<svg id="Letters" xmlns="http://www.w3.org/2000/svg" viewBox="0 0 1326 450.38"><title>AOA-letters</title><path d="M432.14,446.65Q326.67,225.52,221.23,4.38A9.59,9.59,0,0,0,217.91.21h-1.62c-1.84.33-2.82,1.56-3.59,3.17q-4.14,8.69-8.28,17.36-8.8,18.33-17.55,36.7-11.33,23.63-22.62,47.28-8.72,18.27-17.46,36.52Q135.42,165,124.08,188.71q-6.43,13.51-12.91,27Q99.56,239.91,88,264.1q-6.41,13.42-12.82,26.84-11.53,24-23,48-6.32,13.24-12.65,26.48c-7.69,16-15.3,32-23,48-5.32,11.06-10.5,22.19-16,33.19A4.76,4.76,0,0,0,0,449c.08,1.47,1.22.78,1.83.78q55.47.06,111,.08a2.3,2.3,0,0,0,2.49-1.7c4.81-11.28,9.7-22.52,14.49-33.8a2.57,2.57,0,0,1,2.77-1.92q80.6.06,161.17,0a2.62,2.62,0,0,1,2.82,1.88c5,11.22,10,22.39,15,33.6a2.74,2.74,0,0,0,3,1.94q58.41-.07,116.82,0h2.29C433,448.56,432.59,447.6,432.14,446.65Zm-264-122.08L211.84,222.9l45,101.67Z"/><path d="M1325,445.71c-5.73-11.76-11.28-23.61-16.92-35.42q-10.37-21.74-20.73-43.46-8.25-17.37-16.54-34.7-10.6-22.19-21.16-44.38l-16.46-34.52q-10.64-22.28-21.26-44.56-8.18-17.17-16.37-34.34-10.68-22.37-21.35-44.74c-5.43-11.38-10.81-22.79-16.29-34.15-7.9-16.41-15.65-32.88-23.55-49.29-3.16-6.57-6.23-13.17-9.38-19.74-3.72-7.79-7.35-15.62-11.19-23.36a5,5,0,0,0-3.21-2.84h-1.62c-1.89.91-2.78,2.61-3.64,4.4q-43.89,91.83-87.82,183.64-62,129.56-123.94,259.12a4.19,4.19,0,0,0-.79,2.32c.54,0,1.06.08,1.59.08q55.57,0,111.15,0a2.16,2.16,0,0,0,2.38-1.55c4.82-11.34,9.75-22.64,14.57-34a2.56,2.56,0,0,1,2.8-1.86q80.6.06,161.18,0a2.51,2.51,0,0,1,2.7,1.75c5,11.22,10,22.38,15,33.61a3,3,0,0,0,3.29,2.06q58.11-.07,116.22,0c.61,0,1.22,0,1.82,0s.62-.38.61-.8A7.78,7.78,0,0,0,1325,445.71ZM1060.72,324.58c14.54-33.8,29-67.47,43.76-101.68,15.12,34.15,30,67.83,45,101.68Z"/><path d="M897.58,200.13A208.88,208.88,0,0,0,885,146.55C863.86,91.18,825.81,51.19,773,25.11,734.86,6.28,694.3-1.51,651.86.24a248.77,248.77,0,0,0-54.27,8.22C557.93,19.09,522.83,38,493.35,66.74,454,105,432.41,151.78,427.8,206.39a228,228,0,0,0,1.45,50.28,211,211,0,0,0,20.13,66.23c26.7,53.33,68.8,89.64,124,111.17,26.56,10.36,54.23,15.5,82.71,16.31h13.82a247.13,247.13,0,0,0,32.82-3c31.22-5,60.58-15.26,87.69-31.62C831.3,391.1,862,357.3,881,313.33,896.68,277.12,901.57,239.25,897.58,200.13ZM769.51,282.31c-14.94,38.2-42.39,61.75-83,69-25.8,4.64-51.13,2.47-75.18-8.62-26.32-12.13-43.91-32.52-54.46-59.23a138.66,138.66,0,0,1-9.36-45.74c-.1-2.63,0-5.26,0-7.89-.07-22.77,4-44.69,14.75-65,15.7-29.67,40.2-48,73-54.81,24.19-5,48.22-4,71.55,4.57,29,10.64,49,30.9,61.11,59.16,6.75,15.81,9.93,32.41,10.59,49.55C779.3,243.58,776.91,263.38,769.51,282.31Z"/></svg>