<?xml version="1.0" encoding="utf-8"?>
<!-- Generator: Adobe Illustrator 22.0.1, SVG Export Plug-In . SVG Version: 6.00 Build 0)  -->
<svg version="1.1" id="Letters" xmlns="http://www.w3.org/2000/svg" xmlns:xlink="http://www.w3.org/1999/xlink" x="0px" y="0px"
	 viewBox="0 0 1326 450.4" style="enable-background:new 0 0 1326 450.4;" xml:space="preserve">
<style type="text/css">
	.st0{fill:#FBD330;}
</style>
<title>AOA-letters</title>
<path class="st0" d="M432.1,446.6C361.8,299.2,291.5,151.8,221.2,4.4c-0.7-1.7-1.8-3.1-3.3-4.2h-1.6c-1.8,0.3-2.8,1.6-3.6,3.2
	c-2.8,5.8-5.5,11.6-8.3,17.4c-5.9,12.2-11.7,24.5-17.6,36.7c-7.6,15.8-15.1,31.5-22.6,47.3c-5.8,12.2-11.6,24.4-17.5,36.5
	c-7.6,15.8-15.2,31.7-22.7,47.5c-4.3,9-8.6,18-12.9,27c-7.7,16.1-15.5,32.3-23.2,48.4c-4.3,8.9-8.5,17.9-12.8,26.8
	c-7.7,16-15.4,32-23,48c-4.2,8.8-8.4,17.7-12.7,26.5c-7.7,16-15.3,32-23,48c-5.3,11.1-10.5,22.2-16,33.2C0.1,447.3,0,448.2,0,449
	c0.1,1.5,1.2,0.8,1.8,0.8c37,0,74,0.1,111,0.1c1.1,0.1,2.2-0.6,2.5-1.7c4.8-11.3,9.7-22.5,14.5-33.8c0.3-1.2,1.5-2.1,2.8-1.9
	c53.7,0,107.5,0,161.2,0c1.3-0.1,2.5,0.6,2.8,1.9c5,11.2,10,22.4,15,33.6c0.4,1.3,1.7,2.1,3,1.9c38.9,0,77.9,0,116.8,0h2.3
	C433,448.6,432.6,447.6,432.1,446.6z M168.1,324.6l43.7-101.7l45,101.7H168.1z"/>
<path class="st0" d="M1325,445.7c-5.7-11.8-11.3-23.6-16.9-35.4c-6.9-14.5-13.8-29-20.7-43.5c-5.5-11.6-11-23.1-16.5-34.7
	c-7.1-14.8-14.1-29.6-21.2-44.4l-16.5-34.5c-7.1-14.9-14.2-29.7-21.3-44.6c-5.5-11.4-10.9-22.9-16.4-34.3
	c-7.1-14.9-14.2-29.8-21.3-44.7c-5.4-11.4-10.8-22.8-16.3-34.2c-7.9-16.4-15.7-32.9-23.6-49.3c-3.2-6.6-6.2-13.2-9.4-19.7
	c-3.7-7.8-7.3-15.6-11.2-23.4c-0.6-1.4-1.8-2.4-3.2-2.8h-1.6c-1.9,0.9-2.8,2.6-3.6,4.4c-29.3,61.2-58.5,122.4-87.8,183.6
	c-41.3,86.4-82.6,172.7-123.9,259.1c-0.5,0.7-0.8,1.5-0.8,2.3c0.5,0,1.1,0.1,1.6,0.1c37,0,74.1,0,111.2,0c1.1,0.2,2.1-0.5,2.4-1.5
	c4.8-11.3,9.8-22.6,14.6-34c0.3-1.2,1.5-2,2.8-1.9c53.7,0,107.5,0,161.2,0c1.2-0.1,2.3,0.6,2.7,1.8c5,11.2,10,22.4,15,33.6
	c0.4,1.4,1.8,2.3,3.3,2.1c38.7,0,77.5,0,116.2,0c0.6,0,1.2,0,1.8,0s0.6-0.4,0.6-0.8C1326,447.8,1325.6,446.7,1325,445.7z
	 M1060.7,324.6c14.5-33.8,29-67.5,43.8-101.7c15.1,34.1,30,67.8,45,101.7H1060.7z"/>
<path class="st0" d="M897.6,200.1c-1.8-18.3-6-36.4-12.6-53.6c-21.1-55.4-59.2-95.4-112-121.4C734.9,6.3,694.3-1.5,651.9,0.2
	c-18.3,0.7-36.5,3.5-54.3,8.2C557.9,19.1,522.8,38,493.4,66.7c-39.4,38.3-60.9,85-65.6,139.6c-1.4,16.8-0.9,33.6,1.5,50.3
	c3,23,9.8,45.4,20.1,66.2c26.7,53.3,68.8,89.6,124,111.2c26.6,10.4,54.2,15.5,82.7,16.3h13.8c11-0.3,22-1.3,32.8-3
	c31.2-5,60.6-15.3,87.7-31.6c40.9-24.7,71.6-58.5,90.6-102.4C896.7,277.1,901.6,239.3,897.6,200.1z M769.5,282.3
	c-14.9,38.2-42.4,61.8-83,69c-25.8,4.6-51.1,2.5-75.2-8.6c-26.3-12.1-43.9-32.5-54.5-59.2c-5.7-14.6-8.8-30.1-9.4-45.7
	c-0.1-2.6,0-5.3,0-7.9c-0.1-22.8,4-44.7,14.8-65c15.7-29.7,40.2-48,73-54.8c24.2-5,48.2-4,71.5,4.6c29,10.6,49,30.9,61.1,59.2
	c6.8,15.8,9.9,32.4,10.6,49.6C779.3,243.6,776.9,263.4,769.5,282.3z"/>
</svg>
