<?xml version="1.0" encoding="utf-8"?>
<!-- Generator: Adobe Illustrator 22.0.1, SVG Export Plug-In . SVG Version: 6.00 Build 0)  -->
<svg version="1.1" xmlns="http://www.w3.org/2000/svg" xmlns:xlink="http://www.w3.org/1999/xlink" x="0px" y="0px"
	 viewBox="0 0 1326.1 550.8" style="enable-background:new 0 0 1326.1 550.8;" xml:space="preserve">
<g id="Layer_2">
	<g>
		<path d="M10.8,549.9H1.1l26.8-62.5h0.5l26.9,62.5H45.2l-3.5-8.5c0,0-27.3,0-27.4,0L10.8,549.9z M28.1,508.6l-10.2,24.2h20.2
			C38.2,532.8,28.1,508.6,28.1,508.6z"/>
		<path d="M72.9,509.7v40.2h-9v-62.1h0.7l39.2,41.1v-40.2h9v62.1h-0.7L72.9,509.7z"/>
		<path d="M123.1,519.3c0-18.1,13.9-31.4,31.4-31.4c11.3,0,18.2,4,23.2,9.7l-6.7,6.3c-3.7-4-7.9-7.3-16.8-7.3
			c-12.4,0-21.1,9.7-21.1,22.7c0,13,8.8,22.7,22.8,22.7c6.7,0,11.3-1.5,14.8-3.9v-6.9h-16.4v-8.5h25.3v20.1c-5.1,4.2-12.2,8-23.8,8
			C137.1,550.7,123.1,537.4,123.1,519.3z"/>
		<path d="M191.2,488.7h9.6v52.6h27v8.5h-36.6V488.7z"/>
		<path d="M237.8,488.7h9.6v61.2h-9.6V488.7z"/>
		<path d="M270,509.7v40.2h-9v-62.1h0.7l39.2,41.1v-40.2h9v62.1h-0.7L270,509.7z"/>
		<path d="M336.6,519.3c0-18.1,14-31.4,31.6-31.4c17.5,0,31.6,13.3,31.6,31.4c0,18.1-14,31.4-31.6,31.4
			C350.7,550.7,336.6,537.4,336.6,519.3z M389.8,519.3c0-13-8.9-22.7-21.6-22.7c-12.7,0-21.6,9.7-21.6,22.7c0,13,8.9,22.7,21.6,22.7
			C380.9,542,389.8,532.3,389.8,519.3z"/>
		<path d="M409.8,528.3v-39.6h9.6v39.1c0,9.8,4.9,14.2,13.8,14.2c8.8,0,13.7-4.4,13.7-14.2v-39.1h9.6v39.6
			c0,14.9-10.1,22.4-23.3,22.4C419.9,550.7,409.8,543.2,409.8,528.3z"/>
		<path d="M483.1,497.3H465v-8.5h46v8.5h-18.2v52.6h-9.6V497.3z"/>
		<path d="M519.8,488.7H537c20,0,32.2,12.5,32.2,30.6c0,18.1-12.1,30.6-32.2,30.6h-17.3V488.7z M536.5,541.3
			c15.8,0,22.8-9.1,22.8-22c0-13-6.9-22-22.8-22h-7.1v44.1H536.5z"/>
		<path d="M576.6,519.3c0-18.1,14-31.4,31.6-31.4c17.5,0,31.6,13.3,31.6,31.4c0,18.1-14,31.4-31.6,31.4
			C590.7,550.7,576.6,537.4,576.6,519.3z M629.8,519.3c0-13-8.9-22.7-21.6-22.7c-12.7,0-21.6,9.7-21.6,22.7c0,13,8.9,22.7,21.6,22.7
			C620.9,542,629.8,532.3,629.8,519.3z"/>
		<path d="M647.2,519.3c0-18.1,14-31.4,31.6-31.4c17.5,0,31.6,13.3,31.6,31.4c0,18.1-14,31.4-31.6,31.4
			C661.2,550.7,647.2,537.4,647.2,519.3z M700.4,519.3c0-13-8.9-22.7-21.6-22.7s-21.6,9.7-21.6,22.7c0,13,8.9,22.7,21.6,22.7
			S700.4,532.3,700.4,519.3z"/>
		<path d="M762.7,549.9h-11.4L740.8,535c-1.3,0.2-2.9,0.3-4.4,0.3h-6v14.6h-9.6v-61.2h15.7c16.8,0,26.1,9.3,26.1,23.4
			c0,9.5-4.2,16.7-12.2,20.4L762.7,549.9z M736,527c11.8,0,16.6-5.6,16.6-14.9c0-9.3-4.9-14.8-16.6-14.8h-5.7V527H736z"/>
		<path d="M794.8,549.9h-9.7l26.8-62.5h0.5l26.9,62.5h-10.2l-3.5-8.5c0,0-27.3,0-27.4,0L794.8,549.9z M812.1,508.6l-10.2,24.2h20.2
			C822.2,532.8,812.1,508.6,812.1,508.6z"/>
		<path d="M847.9,488.7h17.3c20,0,32.2,12.5,32.2,30.6c0,18.1-12.1,30.6-32.2,30.6h-17.3V488.7z M864.6,541.3
			c15.8,0,22.8-9.1,22.8-22c0-13-6.9-22-22.8-22h-7.1v44.1H864.6z"/>
		<path d="M898.9,488.7h10.2l17.5,41.1l16.9-41.1h9.7l-26.5,62.1h-0.5L898.9,488.7z"/>
		<path d="M961.8,488.7h39v8.5h-29.3v25.4h26v8.4h-26v10.3h30.6v8.5h-40.2V488.7z"/>
		<path d="M1055.2,549.9h-11.4l-10.4-14.8c-1.3,0.2-2.9,0.3-4.4,0.3h-6v14.6h-9.6v-61.2h15.7c16.8,0,26.1,9.3,26.1,23.4
			c0,9.5-4.2,16.7-12.2,20.4L1055.2,549.9z M1028.5,527c11.8,0,16.6-5.6,16.6-14.9c0-9.3-4.9-14.8-16.6-14.8h-5.7V527H1028.5z"/>
		<path d="M1077.9,497.3h-18.2v-8.5h46v8.5h-18.2v52.6h-9.6V497.3z"/>
		<path d="M1114.8,488.7h9.6v61.2h-9.6V488.7z"/>
		<path d="M1141.4,533.8c2.8,5.4,7.6,8.3,13.9,8.3c6.5,0,10.8-3.1,10.8-8c0-5.8-4.3-7.7-9.7-10.2l-4.2-1.9c-9-4-15.1-8.6-15.1-18.2
			c0-9.4,6.9-15.9,17-15.9c7.8,0,13.6,3.2,17.5,9.6l-7.3,4.8c-2.3-4-5.4-5.9-10-5.9c-5,0-7.8,2.9-7.8,7.1c0,4.9,3,6.8,9.6,9.7
			l4.2,1.9c9.3,4.1,15.4,8.4,15.4,18.7c0,11.2-8.6,16.9-20.2,16.9c-10.3,0-17.9-5-22-12.9L1141.4,533.8z"/>
		<path d="M1186,488.7h9.6v61.2h-9.6V488.7z"/>
		<path d="M1218.3,509.7v40.2h-9v-62.1h0.7l39.2,41.1v-40.2h9v62.1h-0.7L1218.3,509.7z"/>
		<path d="M1268.5,519.3c0-18.1,13.9-31.4,31.4-31.4c11.3,0,18.2,4,23.2,9.7l-6.7,6.3c-3.7-4-7.9-7.3-16.8-7.3
			c-12.4,0-21.1,9.7-21.1,22.7c0,13,8.8,22.7,22.8,22.7c6.7,0,11.3-1.5,14.8-3.9v-6.9h-16.4v-8.5h25.3v20.1c-5.1,4.2-12.2,8-23.8,8
			C1282.4,550.7,1268.5,537.4,1268.5,519.3z"/>
	</g>
</g>
<g id="Letters">
	<g>
		<path d="M432.1,446.6C361.8,299.2,291.5,151.8,221.2,4.4c-0.7-1.7-1.8-3.1-3.3-4.2h-1.6c-1.8,0.3-2.8,1.6-3.6,3.2
			c-2.8,5.8-5.5,11.6-8.3,17.4c-5.9,12.2-11.7,24.5-17.6,36.7c-7.6,15.8-15.1,31.5-22.6,47.3c-5.8,12.2-11.6,24.4-17.5,36.5
			c-7.6,15.8-15.2,31.7-22.7,47.5c-4.3,9-8.6,18-12.9,27c-7.7,16.1-15.5,32.3-23.2,48.4c-4.3,8.9-8.5,17.9-12.8,26.8
			c-7.7,16-15.4,32-23,48c-4.2,8.8-8.4,17.7-12.7,26.5c-7.7,16-15.3,32-23,48c-5.3,11.1-10.5,22.2-16,33.2C0.2,447.3,0,448.2,0,449
			c0.1,1.5,1.2,0.8,1.8,0.8c37,0,74,0.1,111,0.1c1.1,0.1,2.2-0.6,2.5-1.7c4.8-11.3,9.7-22.5,14.5-33.8c0.3-1.2,1.5-2.1,2.8-1.9
			c53.7,0,107.5,0,161.2,0c1.3-0.1,2.5,0.6,2.8,1.9c5,11.2,10,22.4,15,33.6c0.4,1.3,1.7,2.1,3,1.9c38.9,0,77.9,0,116.8,0h2.3
			C433,448.6,432.6,447.6,432.1,446.6z M168.1,324.6l43.7-101.7l45,101.7H168.1z"/>
		<path d="M1325,445.7c-5.7-11.8-11.3-23.6-16.9-35.4c-6.9-14.5-13.8-29-20.7-43.5c-5.5-11.6-11-23.1-16.5-34.7
			c-7.1-14.8-14.1-29.6-21.2-44.4l-16.5-34.5c-7.1-14.9-14.2-29.7-21.3-44.6c-5.5-11.4-10.9-22.9-16.4-34.3
			c-7.1-14.9-14.2-29.8-21.3-44.7c-5.4-11.4-10.8-22.8-16.3-34.2c-7.9-16.4-15.7-32.9-23.6-49.3c-3.2-6.6-6.2-13.2-9.4-19.7
			c-3.7-7.8-7.3-15.6-11.2-23.4c-0.6-1.4-1.8-2.4-3.2-2.8h-1.6c-1.9,0.9-2.8,2.6-3.6,4.4c-29.3,61.2-58.5,122.4-87.8,183.6
			c-41.3,86.4-82.6,172.7-123.9,259.1c-0.5,0.7-0.8,1.5-0.8,2.3c0.5,0,1.1,0.1,1.6,0.1c37,0,74.1,0,111.2,0c1.1,0.2,2.1-0.5,2.4-1.5
			c4.8-11.3,9.8-22.6,14.6-34c0.3-1.2,1.5-2,2.8-1.9c53.7,0,107.5,0,161.2,0c1.2-0.1,2.3,0.6,2.7,1.8c5,11.2,10,22.4,15,33.6
			c0.4,1.4,1.8,2.3,3.3,2.1c38.7,0,77.5,0,116.2,0c0.6,0,1.2,0,1.8,0s0.6-0.4,0.6-0.8C1326,447.8,1325.6,446.7,1325,445.7z
			 M1060.7,324.6c14.5-33.8,29-67.5,43.8-101.7c15.1,34.1,30,67.8,45,101.7H1060.7z"/>
		<path d="M897.6,200.1c-1.8-18.3-6-36.4-12.6-53.6c-21.1-55.4-59.2-95.4-112-121.4C734.9,6.3,694.3-1.5,651.9,0.2
			c-18.3,0.7-36.5,3.5-54.3,8.2C557.9,19.1,522.8,38,493.4,66.7c-39.4,38.3-60.9,85-65.6,139.6c-1.4,16.8-0.9,33.6,1.5,50.3
			c3,23,9.8,45.4,20.1,66.2c26.7,53.3,68.8,89.6,124,111.2c26.6,10.4,54.2,15.5,82.7,16.3h13.8c11-0.3,22-1.3,32.8-3
			c31.2-5,60.6-15.3,87.7-31.6c40.9-24.7,71.6-58.5,90.6-102.4C896.7,277.1,901.6,239.2,897.6,200.1z M769.5,282.3
			c-14.9,38.2-42.4,61.8-83,69c-25.8,4.6-51.1,2.5-75.2-8.6c-26.3-12.1-43.9-32.5-54.5-59.2c-5.7-14.6-8.8-30.1-9.4-45.7
			c-0.1-2.6,0-5.3,0-7.9c-0.1-22.8,4-44.7,14.8-65c15.7-29.7,40.2-48,73-54.8c24.2-5,48.2-4,71.5,4.6c29,10.6,49,30.9,61.1,59.2
			c6.8,15.8,9.9,32.4,10.6,49.6C779.3,243.6,776.9,263.4,769.5,282.3z"/>
	</g>
</g>
</svg>
