<?xml version="1.0" encoding="utf-8"?>
<!-- Generator: Adobe Illustrator 22.0.1, SVG Export Plug-In . SVG Version: 6.00 Build 0)  -->
<svg version="1.1" xmlns="http://www.w3.org/2000/svg" xmlns:xlink="http://www.w3.org/1999/xlink" x="0px" y="0px"
	 viewBox="0 0 1326 1326" style="enable-background:new 0 0 1326 1326;" xml:space="preserve">
<style type="text/css">
	.st0{fill:#F5D555;}
</style>
<g id="Layer_2">
	<g>
		<rect class="st0" width="1326" height="1326"/>
	</g>
	<g>
		<rect width="1326" height="1326"/>
	</g>
</g>
<g id="Letters">
	<title>AOA-letters</title>
	<path class="st0" d="M451.9,865.5c-64.3-134.8-128.6-269.6-192.9-404.4c-0.6-1.5-1.7-2.9-3-3.8h-1.5c-1.7,0.3-2.6,1.4-3.3,2.9
		c-2.5,5.3-5,10.6-7.6,15.9c-5.4,11.2-10.7,22.4-16,33.6c-6.9,14.4-13.8,28.8-20.7,43.2c-5.3,11.1-10.6,22.3-16,33.4
		c-6.9,14.5-13.9,29-20.8,43.4c-3.9,8.2-7.9,16.5-11.8,24.7c-7.1,14.8-14.1,29.5-21.2,44.2c-3.9,8.2-7.8,16.4-11.7,24.5
		c-7,14.6-14,29.3-21,43.9c-3.9,8.1-7.7,16.1-11.6,24.2c-7,14.6-14,29.3-21,43.9c-4.9,10.1-9.6,20.3-14.6,30.3
		c-0.3,0.7-0.5,1.4-0.5,2.2c0.1,1.3,1.1,0.7,1.7,0.7c33.8,0,67.6,0.1,101.5,0.1c1,0.1,2-0.5,2.3-1.6c4.4-10.3,8.9-20.6,13.2-30.9
		c0.3-1.1,1.4-1.9,2.5-1.8c49.1,0,98.3,0,147.4,0c1.2-0.1,2.3,0.6,2.6,1.7c4.6,10.3,9.1,20.5,13.7,30.7c0.4,1.2,1.5,1.9,2.7,1.8
		c35.6,0,71.2,0,106.8,0h2.1C452.7,867.2,452.3,866.4,451.9,865.5z M210.5,753.9l40-93l41.1,93H210.5z"/>
	<path class="st0" d="M1268.3,864.6c-5.2-10.8-10.3-21.6-15.5-32.4c-6.3-13.3-12.6-26.5-19-39.7c-5-10.6-10.1-21.2-15.1-31.7
		c-6.5-13.5-12.9-27.1-19.3-40.6l-15.1-31.6c-6.5-13.6-13-27.2-19.4-40.7c-5-10.5-10-20.9-15-31.4c-6.5-13.6-13-27.3-19.5-40.9
		c-5-10.4-9.9-20.8-14.9-31.2c-7.2-15-14.3-30.1-21.5-45.1c-2.9-6-5.7-12-8.6-18.1c-3.4-7.1-6.7-14.3-10.2-21.4
		c-0.5-1.3-1.6-2.2-2.9-2.6h-1.5c-1.7,0.8-2.5,2.4-3.3,4c-26.8,56-53.5,112-80.3,167.9c-37.8,79-75.6,158-113.3,236.9
		c-0.4,0.6-0.7,1.4-0.7,2.1c0.5,0,1,0.1,1.5,0.1c33.9,0,67.8,0,101.6,0c1,0.1,1.9-0.5,2.2-1.4c4.4-10.4,8.9-20.7,13.3-31.1
		c0.3-1.1,1.4-1.9,2.6-1.7c49.1,0,98.3,0,147.4,0c1.1-0.1,2.1,0.5,2.5,1.6c4.6,10.3,9.1,20.5,13.7,30.7c0.4,1.3,1.7,2.1,3,1.9
		c35.4,0,70.8,0,106.3,0c0.6,0,1.1,0,1.7,0c0.5,0,0.6-0.3,0.6-0.7C1269.2,866.6,1268.9,865.6,1268.3,864.6z M1026.7,753.9
		c13.3-30.9,26.5-61.7,40-93c13.8,31.2,27.4,62,41.1,93H1026.7z"/>
	<path class="st0" d="M877.5,640.1c-1.7-16.8-5.5-33.2-11.5-49c-19.3-50.6-54.1-87.2-102.4-111c-34.9-17.2-72-24.3-110.8-22.7
		c-16.8,0.7-33.4,3.2-49.6,7.5c-36.3,9.7-68.4,27-95.3,53.3c-36,35-55.7,77.8-59.9,127.7c-1.3,15.3-0.8,30.7,1.3,46
		c2.8,21.1,9,41.5,18.4,60.6c24.4,48.8,62.9,82,113.4,101.7c24.3,9.5,49.6,14.2,75.6,14.9h12.6c10.1-0.2,20.1-1.2,30-2.7
		c28.5-4.6,55.4-14,80.2-28.9c37.4-22.5,65.5-53.5,82.8-93.7C876.7,710.5,881.2,675.9,877.5,640.1z M760.4,715.2
		c-13.7,34.9-38.8,56.5-75.9,63.1c-23.6,4.2-46.8,2.3-68.7-7.9c-24.1-11.1-40.2-29.7-49.8-54.2c-5.2-13.4-8.1-27.5-8.6-41.8
		c-0.1-2.4,0-4.8,0-7.2c-0.1-20.8,3.7-40.9,13.5-59.4c14.4-27.1,36.8-43.9,66.8-50.1c22.1-4.6,44.1-3.7,65.4,4.2
		c26.5,9.7,44.8,28.3,55.9,54.1c6.2,14.5,9.1,29.6,9.7,45.3C769.3,679.8,767.2,697.9,760.4,715.2z"/>
</g>
</svg>
