<?xml version="1.0" encoding="utf-8"?>
<!-- Generator: Adobe Illustrator 18.1.0, SVG Export Plug-In . SVG Version: 6.00 Build 0)  -->
<svg version="1.1" id="Layer_1" xmlns="http://www.w3.org/2000/svg" xmlns:xlink="http://www.w3.org/1999/xlink" x="0px" y="0px"
	 viewBox="732.3 -601 1542.9 1699.3" enable-background="new 732.3 -601 1542.9 1699.3" xml:space="preserve">
<g>
	<g transform="translate(71 -451)">
		<g>
			<g>
				<g>
					<path id="_x38_tzfa_1_" fill="none" d="M1873.4,1552.9H992.6l-229.2,499.7H429L1447-134l982,2186.5h-339.8L1873.4,1552.9z"/>
				</g>
				<g>
					<path id="_x38_tzfa_2_" fill-opacity="0.5" d="M1873.4,1552.9H992.6l-229.2,499.7H429L1447-134l982,2186.5h-339.8
						L1873.4,1552.9z"/>
				</g>
			</g>
			<g>
				<path id="_x38_tzfa_3_" fill="#F1C200" d="M1873.4,1552.9H992.6l-229.2,499.7H429L1447-134l982,2186.5h-339.8L1873.4,1552.9z"/>
			</g>
		</g>
		<g>
			<defs>
				<polygon id="SVGID_1_" points="1873.4,1552.9 992.6,1552.9 763.4,2052.5 429,2052.5 1447,-134 2429,2052.5 2089.2,2052.5 				
					"/>
			</defs>
			<clipPath id="SVGID_2_">
				<use xlink:href="#SVGID_1_"  overflow="visible"/>
			</clipPath>
			<g clip-path="url(#SVGID_2_)">
				<g>
					<path id="_x38_tzfe" fill="#E9E9E9" d="M1484-99l-33.1,71.1L1419-99H1484z"/>
				</g>
			</g>
		</g>
		<g>
			<defs>
				<polygon id="SVGID_3_" points="1873.4,1552.9 992.6,1552.9 763.4,2052.5 429,2052.5 1447,-134 2429,2052.5 2089.2,2052.5 				
					"/>
			</defs>
			<clipPath id="SVGID_4_">
				<use xlink:href="#SVGID_3_"  overflow="visible"/>
			</clipPath>
			<g clip-path="url(#SVGID_4_)">
				<g>
					<path id="_x38_tzff" fill="#E9E9E9" d="M1464-118l-33.1,71.1L1399-118H1464z"/>
				</g>
			</g>
		</g>
		<g>
			<defs>
				<polygon id="SVGID_5_" points="1873.4,1552.9 992.6,1552.9 763.4,2052.5 429,2052.5 1447,-134 2429,2052.5 2089.2,2052.5 				
					"/>
			</defs>
			<clipPath id="SVGID_6_">
				<use xlink:href="#SVGID_5_"  overflow="visible"/>
			</clipPath>
			<g clip-path="url(#SVGID_6_)">
				<g>
					<path id="_x38_tzfg" fill="#E9E9E9" d="M1481-150l-33.1,71.1L1416-150H1481z"/>
				</g>
			</g>
		</g>
		<g>
			<defs>
				<polygon id="SVGID_7_" points="1873.4,1552.9 992.6,1552.9 763.4,2052.5 429,2052.5 1447,-134 2429,2052.5 2089.2,2052.5 				
					"/>
			</defs>
			<clipPath id="SVGID_8_">
				<use xlink:href="#SVGID_7_"  overflow="visible"/>
			</clipPath>
			<g clip-path="url(#SVGID_8_)">
				<g>
					<path id="_x38_tzfh" fill="#E9E9E9" d="M1492-121l-33.1,71.1L1427-121H1492z"/>
				</g>
			</g>
		</g>
		<g>
			<defs>
				<polygon id="SVGID_9_" points="1873.4,1552.9 992.6,1552.9 763.4,2052.5 429,2052.5 1447,-134 2429,2052.5 2089.2,2052.5 				
					"/>
			</defs>
			<clipPath id="SVGID_10_">
				<use xlink:href="#SVGID_9_"  overflow="visible"/>
			</clipPath>
			<g clip-path="url(#SVGID_10_)">
				<g>
					<path id="_x38_tzfi" fill="#E9E9E9" d="M1479-61l-33.1,71.1L1414-61H1479z"/>
				</g>
			</g>
		</g>
		<g>
			<defs>
				<polygon id="SVGID_11_" points="1873.4,1552.9 992.6,1552.9 763.4,2052.5 429,2052.5 1447,-134 2429,2052.5 2089.2,2052.5 				
					"/>
			</defs>
			<clipPath id="SVGID_12_">
				<use xlink:href="#SVGID_11_"  overflow="visible"/>
			</clipPath>
			<g clip-path="url(#SVGID_12_)">
				<g>
					<path id="_x38_tzfj" fill="#E9E9E9" d="M1510-91l-33.1,71.1L1445-91H1510z"/>
				</g>
			</g>
		</g>
		<g>
			<defs>
				<polygon id="SVGID_13_" points="1873.4,1552.9 992.6,1552.9 763.4,2052.5 429,2052.5 1447,-134 2429,2052.5 2089.2,2052.5 				
					"/>
			</defs>
			<clipPath id="SVGID_14_">
				<use xlink:href="#SVGID_13_"  overflow="visible"/>
			</clipPath>
			<g clip-path="url(#SVGID_14_)">
				<g>
					<path id="_x38_tzfk" fill="#E9E9E9" d="M1447-82l-33.1,71.1L1382-82H1447z"/>
				</g>
			</g>
		</g>
	</g>
</g>
</svg>
