<?xml version="1.0" encoding="utf-8"?>
<!-- Generator: Adobe Illustrator 18.1.0, SVG Export Plug-In . SVG Version: 6.00 Build 0)  -->
<svg version="1.1" id="Layer_1" xmlns="http://www.w3.org/2000/svg" xmlns:xlink="http://www.w3.org/1999/xlink" x="0px" y="0px"
	 viewBox="727.5 -594 1547.6 1687.9" enable-background="new 727.5 -594 1547.6 1687.9" xml:space="preserve">
<g>
	<g transform="translate(-333 -144)">
		<g>
			<g>
				<g>
					<path id="_x38_9ysa_1_" fill="none" d="M2277.4,1237.9h-880.7l-229.2,499.7H833L1851-449l982,2186.5h-339.8L2277.4,1237.9z"/>
				</g>
				<g>
					<path id="_x38_9ysa_2_" fill-opacity="0.39" d="M2277.4,1237.9h-880.7l-229.2,499.7H833L1851-449l982,2186.5h-339.8
						L2277.4,1237.9z"/>
				</g>
			</g>
			<g>
				<path id="_x38_9ysa_3_" fill="#ECBD00" d="M2277.4,1237.9h-880.7l-229.2,499.7H833L1851-449l982,2186.5h-339.8L2277.4,1237.9z"
					/>
			</g>
		</g>
		<g>
			<defs>
				<polygon id="SVGID_1_" points="2277.4,1237.9 1396.6,1237.9 1167.4,1737.5 833,1737.5 1851,-449 2833,1737.5 2493.2,1737.5 				
					"/>
			</defs>
			<clipPath id="SVGID_2_">
				<use xlink:href="#SVGID_1_"  overflow="visible"/>
			</clipPath>
			<g clip-path="url(#SVGID_2_)">
				<g>
					<path id="_x38_9yse" fill="#EBEBEB" d="M1841-317l-33.1,71.1L1776-317H1841z"/>
				</g>
			</g>
		</g>
		<g>
			<defs>
				<polygon id="SVGID_3_" points="2277.4,1237.9 1396.6,1237.9 1167.4,1737.5 833,1737.5 1851,-449 2833,1737.5 2493.2,1737.5 				
					"/>
			</defs>
			<clipPath id="SVGID_4_">
				<use xlink:href="#SVGID_3_"  overflow="visible"/>
			</clipPath>
			<g clip-path="url(#SVGID_4_)">
				<g>
					<path id="_x38_9ysf" fill="#EBEBEB" d="M1873-346l-33.1,71.1L1808-346H1873z"/>
				</g>
			</g>
		</g>
		<g>
			<defs>
				<polygon id="SVGID_5_" points="2277.4,1237.9 1396.6,1237.9 1167.4,1737.5 833,1737.5 1851,-449 2833,1737.5 2493.2,1737.5 				
					"/>
			</defs>
			<clipPath id="SVGID_6_">
				<use xlink:href="#SVGID_5_"  overflow="visible"/>
			</clipPath>
			<g clip-path="url(#SVGID_6_)">
				<g>
					<path id="_x38_9ysg" fill="#EBEBEB" d="M1896-329l-33.1,71.1L1831-329H1896z"/>
				</g>
			</g>
		</g>
		<g>
			<defs>
				<polygon id="SVGID_7_" points="2277.4,1237.9 1396.6,1237.9 1167.4,1737.5 833,1737.5 1851,-449 2833,1737.5 2493.2,1737.5 				
					"/>
			</defs>
			<clipPath id="SVGID_8_">
				<use xlink:href="#SVGID_7_"  overflow="visible"/>
			</clipPath>
			<g clip-path="url(#SVGID_8_)">
				<g>
					<path id="_x38_9ysh" fill="#EBEBEB" d="M1933-363l-33.1,71.1L1868-363H1933z"/>
				</g>
			</g>
		</g>
		<g>
			<defs>
				<polygon id="SVGID_9_" points="2277.4,1237.9 1396.6,1237.9 1167.4,1737.5 833,1737.5 1851,-449 2833,1737.5 2493.2,1737.5 				
					"/>
			</defs>
			<clipPath id="SVGID_10_">
				<use xlink:href="#SVGID_9_"  overflow="visible"/>
			</clipPath>
			<g clip-path="url(#SVGID_10_)">
				<g>
					<path id="_x38_9ysi" fill="#EBEBEB" d="M1913-383l-40.7,87.5L1833-383H1913z"/>
				</g>
			</g>
		</g>
		<g>
			<defs>
				<polygon id="SVGID_11_" points="2277.4,1237.9 1396.6,1237.9 1167.4,1737.5 833,1737.5 1851,-449 2833,1737.5 2493.2,1737.5 
									"/>
			</defs>
			<clipPath id="SVGID_12_">
				<use xlink:href="#SVGID_11_"  overflow="visible"/>
			</clipPath>
			<g clip-path="url(#SVGID_12_)">
				<g>
					<path id="_x38_9ysj" fill="#EBEBEB" d="M1872-391l-33.1,71.1L1807-391H1872z"/>
				</g>
			</g>
		</g>
		<g>
			<defs>
				<polygon id="SVGID_13_" points="2277.4,1237.9 1396.6,1237.9 1167.4,1737.5 833,1737.5 1851,-449 2833,1737.5 2493.2,1737.5 
									"/>
			</defs>
			<clipPath id="SVGID_14_">
				<use xlink:href="#SVGID_13_"  overflow="visible"/>
			</clipPath>
			<g clip-path="url(#SVGID_14_)">
				<g>
					<path id="_x38_9ysk" fill="#EBEBEB" d="M1851-376l-33.1,71.1L1786-376H1851z"/>
				</g>
			</g>
		</g>
		<g>
			<defs>
				<polygon id="SVGID_15_" points="2277.4,1237.9 1396.6,1237.9 1167.4,1737.5 833,1737.5 1851,-449 2833,1737.5 2493.2,1737.5 
									"/>
			</defs>
			<clipPath id="SVGID_16_">
				<use xlink:href="#SVGID_15_"  overflow="visible"/>
			</clipPath>
			<g clip-path="url(#SVGID_16_)">
				<g>
					<path id="_x38_9ysl" fill="#EBEBEB" d="M1836-357l-33.1,71.1L1771-357H1836z"/>
				</g>
			</g>
		</g>
		<g>
			<defs>
				<polygon id="SVGID_17_" points="2277.4,1237.9 1396.6,1237.9 1167.4,1737.5 833,1737.5 1851,-449 2833,1737.5 2493.2,1737.5 
									"/>
			</defs>
			<clipPath id="SVGID_18_">
				<use xlink:href="#SVGID_17_"  overflow="visible"/>
			</clipPath>
			<g clip-path="url(#SVGID_18_)">
				<g>
					<path id="_x38_9ysm" fill="#EBEBEB" d="M1877-419l-33.1,71.1L1812-419H1877z"/>
				</g>
			</g>
		</g>
		<g>
			<defs>
				<polygon id="SVGID_19_" points="2277.4,1237.9 1396.6,1237.9 1167.4,1737.5 833,1737.5 1851,-449 2833,1737.5 2493.2,1737.5 
									"/>
			</defs>
			<clipPath id="SVGID_20_">
				<use xlink:href="#SVGID_19_"  overflow="visible"/>
			</clipPath>
			<g clip-path="url(#SVGID_20_)">
				<g>
					<path id="_x38_9ysn" fill="#EBEBEB" d="M1886-450l-33.1,71.1L1821-450H1886z"/>
				</g>
			</g>
		</g>
		<g>
			<defs>
				<polygon id="SVGID_21_" points="2277.4,1237.9 1396.6,1237.9 1167.4,1737.5 833,1737.5 1851,-449 2833,1737.5 2493.2,1737.5 
									"/>
			</defs>
			<clipPath id="SVGID_22_">
				<use xlink:href="#SVGID_21_"  overflow="visible"/>
			</clipPath>
			<g clip-path="url(#SVGID_22_)">
				<g>
					<path id="_x38_9yso" fill="#EBEBEB" d="M1914-414l-33.1,71.1L1849-414H1914z"/>
				</g>
			</g>
		</g>
		<g>
			<defs>
				<polygon id="SVGID_23_" points="2277.4,1237.9 1396.6,1237.9 1167.4,1737.5 833,1737.5 1851,-449 2833,1737.5 2493.2,1737.5 
									"/>
			</defs>
			<clipPath id="SVGID_24_">
				<use xlink:href="#SVGID_23_"  overflow="visible"/>
			</clipPath>
		</g>
	</g>
</g>
</svg>
