<?xml version="1.0" encoding="utf-8"?>
<!-- Generator: Adobe Illustrator 18.1.0, SVG Export Plug-In . SVG Version: 6.00 Build 0)  -->
<svg version="1.1" id="Layer_1" xmlns="http://www.w3.org/2000/svg" xmlns:xlink="http://www.w3.org/1999/xlink" x="0px" y="0px"
	 viewBox="732.3 -596 1542.9 1691.9" enable-background="new 732.3 -596 1542.9 1691.9" xml:space="preserve">
<g>
	<g transform="translate(-103 -274)">
		<g>
			<g>
				<g>
					<path id="_x31_osua_1_" fill="none" d="M2047.4,1369.9h-880.8l-229.2,499.7H603L1621-317l982,2186.5h-339.8L2047.4,1369.9z"/>
				</g>
				<g>
					<path id="_x31_osua_2_" fill-opacity="0.23" d="M2047.4,1369.9h-880.8l-229.2,499.7H603L1621-317l982,2186.5h-339.8
						L2047.4,1369.9z"/>
				</g>
			</g>
			<g>
				<path id="_x31_osua_3_" fill="#FFCC00" d="M2047.4,1369.9h-880.8l-229.2,499.7H603L1621-317l982,2186.5h-339.8L2047.4,1369.9z"
					/>
			</g>
		</g>
		<g>
			<defs>
				<polygon id="SVGID_1_" points="2047.4,1369.9 1166.6,1369.9 937.4,1869.5 603,1869.5 1621,-317 2603,1869.5 2263.2,1869.5 				
					"/>
			</defs>
			<clipPath id="SVGID_2_">
				<use xlink:href="#SVGID_1_"  overflow="visible"/>
			</clipPath>
			<g clip-path="url(#SVGID_2_)">
				<g>
					<path id="_x31_osue" fill="#D8AD00" d="M1621.1-318.6l17.3,339.4l-139.3,176.5l179.1,297.2l333.7,15.6L1621.1-318.6z"/>
				</g>
			</g>
		</g>
		<g>
			<defs>
				<polygon id="SVGID_3_" points="2047.4,1369.9 1166.6,1369.9 937.4,1869.5 603,1869.5 1621,-317 2603,1869.5 2263.2,1869.5 				
					"/>
			</defs>
			<clipPath id="SVGID_4_">
				<use xlink:href="#SVGID_3_"  overflow="visible"/>
			</clipPath>
			<g clip-path="url(#SVGID_4_)">
				<g>
					<path id="_x31_osuf" fill="#FFFFFF" d="M1645-218l-33.1,71.1L1580-218H1645z"/>
				</g>
			</g>
		</g>
		<g>
			<defs>
				<polygon id="SVGID_5_" points="2047.4,1369.9 1166.6,1369.9 937.4,1869.5 603,1869.5 1621,-317 2603,1869.5 2263.2,1869.5 				
					"/>
			</defs>
			<clipPath id="SVGID_6_">
				<use xlink:href="#SVGID_5_"  overflow="visible"/>
			</clipPath>
			<g clip-path="url(#SVGID_6_)">
				<g>
					<path id="_x31_osug" fill="#FFFFFF" d="M1642-274l-33.1,71.1L1577-274H1642z"/>
				</g>
			</g>
		</g>
		<g>
			<defs>
				<polygon id="SVGID_7_" points="2047.4,1369.9 1166.6,1369.9 937.4,1869.5 603,1869.5 1621,-317 2603,1869.5 2263.2,1869.5 				
					"/>
			</defs>
			<clipPath id="SVGID_8_">
				<use xlink:href="#SVGID_7_"  overflow="visible"/>
			</clipPath>
			<g clip-path="url(#SVGID_8_)">
				<g>
					<path id="_x31_osuh" fill="#FFFFFF" d="M1627-274l-33.1,71.1L1562-274H1627z"/>
				</g>
			</g>
		</g>
		<g>
			<defs>
				<polygon id="SVGID_9_" points="2047.4,1369.9 1166.6,1369.9 937.4,1869.5 603,1869.5 1621,-317 2603,1869.5 2263.2,1869.5 				
					"/>
			</defs>
			<clipPath id="SVGID_10_">
				<use xlink:href="#SVGID_9_"  overflow="visible"/>
			</clipPath>
			<g clip-path="url(#SVGID_10_)">
				<g>
					<path id="_x31_osui" fill="#FFFFFF" d="M1652-266l-33.1,71.1L1587-266H1652z"/>
				</g>
			</g>
		</g>
		<g>
			<defs>
				<polygon id="SVGID_11_" points="2047.4,1369.9 1166.6,1369.9 937.4,1869.5 603,1869.5 1621,-317 2603,1869.5 2263.2,1869.5 				
					"/>
			</defs>
			<clipPath id="SVGID_12_">
				<use xlink:href="#SVGID_11_"  overflow="visible"/>
			</clipPath>
			<g clip-path="url(#SVGID_12_)">
				<g>
					<path id="_x31_osuj" fill="#FFFFFF" d="M1682-282l-33.1,71.1L1617-282H1682z"/>
				</g>
			</g>
		</g>
		<g>
			<defs>
				<polygon id="SVGID_13_" points="2047.4,1369.9 1166.6,1369.9 937.4,1869.5 603,1869.5 1621,-317 2603,1869.5 2263.2,1869.5 				
					"/>
			</defs>
			<clipPath id="SVGID_14_">
				<use xlink:href="#SVGID_13_"  overflow="visible"/>
			</clipPath>
			<g clip-path="url(#SVGID_14_)">
				<g>
					<path id="_x31_osuk" fill="#FFFFFF" d="M1660-322l-33.1,71.1L1595-322H1660z"/>
				</g>
			</g>
		</g>
		<g>
			<defs>
				<polygon id="SVGID_15_" points="2047.4,1369.9 1166.6,1369.9 937.4,1869.5 603,1869.5 1621,-317 2603,1869.5 2263.2,1869.5 				
					"/>
			</defs>
			<clipPath id="SVGID_16_">
				<use xlink:href="#SVGID_15_"  overflow="visible"/>
			</clipPath>
			<g clip-path="url(#SVGID_16_)">
				<g>
					<path id="_x31_osul" fill="#FFFFFF" d="M1641-307l-33.1,71.1L1576-307H1641z"/>
				</g>
			</g>
		</g>
		<g>
			<defs>
				<polygon id="SVGID_17_" points="2047.4,1369.9 1166.6,1369.9 937.4,1869.5 603,1869.5 1621,-317 2603,1869.5 2263.2,1869.5 				
					"/>
			</defs>
			<clipPath id="SVGID_18_">
				<use xlink:href="#SVGID_17_"  overflow="visible"/>
			</clipPath>
			<g clip-path="url(#SVGID_18_)">
				<g>
					<path id="_x31_osum" fill="#FFFFFF" d="M1678-242l-33.1,71.1L1613-242H1678z"/>
				</g>
			</g>
		</g>
		<g>
			<defs>
				<polygon id="SVGID_19_" points="2047.4,1369.9 1166.6,1369.9 937.4,1869.5 603,1869.5 1621,-317 2603,1869.5 2263.2,1869.5 				
					"/>
			</defs>
			<clipPath id="SVGID_20_">
				<use xlink:href="#SVGID_19_"  overflow="visible"/>
			</clipPath>
			<g clip-path="url(#SVGID_20_)">
				<g>
					<path id="_x31_osun" fill="#FFFFFF" d="M1619-242l-33.1,71.1L1554-242H1619z"/>
				</g>
			</g>
		</g>
	</g>
</g>
</svg>
