<?xml version="1.0" encoding="utf-8"?>
<!-- Generator: Adobe Illustrator 18.1.0, SVG Export Plug-In . SVG Version: 6.00 Build 0)  -->
<svg version="1.1" id="Layer_1" xmlns="http://www.w3.org/2000/svg" xmlns:xlink="http://www.w3.org/1999/xlink" x="0px" y="0px"
	 viewBox="727.5 -597 1552.4 1695.3" enable-background="new 727.5 -597 1552.4 1695.3" xml:space="preserve">
<filter  width="2066" height="2276" id="fu5cb" filterUnits="userSpaceOnUse" y="729" x="-376">
	<feOffset  result="FeOffset1097Out" in="SourceGraphic" dy="23"></feOffset>
	<feGaussianBlur  stdDeviation="9.2 9.2" result="FeGaussianBlur1098Out" in="FeOffset1097Out"></feGaussianBlur>
</filter>
<g>
	<g transform="translate(343 -731)">
		<g>
			<g filter="url(#fu5cb)">
				<g>
					<g id="fu5ca_4_">
						<polygon opacity="0.23" points="1601.4,1828.9 720.6,1828.9 491.4,2328.5 157,2328.5 1175,142 2157,2328.5 1817.2,2328.5 
													"/>
					</g>
				</g>
			</g>
			<g>
				<path id="fu5ca_3_" fill="#FFCC00" d="M1601.4,1828.9H720.6l-229.2,499.7H157L1175,142l982,2186.5h-339.8L1601.4,1828.9z"/>
			</g>
		</g>
		<g>
			<defs>
				<polygon id="SVGID_1_" points="1601.4,1828.9 720.6,1828.9 491.4,2328.5 157,2328.5 1175,142 2157,2328.5 1817.2,2328.5 				"/>
			</defs>
			<clipPath id="SVGID_2_">
				<use xlink:href="#SVGID_1_"  overflow="visible"/>
			</clipPath>
			<g clip-path="url(#SVGID_2_)">
				<g>
					<path id="fu5ce" fill="#E8BB00" d="M1176.1,134.5c0.2,2.4-20.2,121.9-20.2,121.9l27.5,43.4l-33.5,88.3c0,0,49.6,55.4,48.1,56.8
						c-1.6,1.3,126.7,9.7,127.3,5.8C1325.9,446.8,1175.9,132.1,1176.1,134.5L1176.1,134.5z"/>
				</g>
			</g>
		</g>
	</g>
</g>
</svg>
